<svg width="489.9" height="489.9" xmlns="http://www.w3.org/2000/svg">

 <g>
  <title>background</title>
  <rect fill="none" id="canvas_background" height="402" width="582" y="-1" x="-1"/>
 </g>
 <g>
  <title>Layer 1</title>
  <path fill="#ffffff" id="svg_4" d="m468.3,255.8c0.1,-0.1 0.1,-0.1 0.2,-0.2c0.3,-0.4 0.6,-0.7 0.8,-1.1c0.1,-0.1 0.1,-0.2 0.2,-0.3c0.2,-0.4 0.5,-0.8 0.7,-1.2c0,-0.1 0.1,-0.2 0.1,-0.2c0.2,-0.4 0.4,-0.8 0.6,-1.3c0,-0.1 0,-0.1 0.1,-0.2c0.2,-0.4 0.3,-0.9 0.5,-1.4c0,-0.1 0,-0.2 0.1,-0.2c0.1,-0.5 0.3,-0.9 0.3,-1.4c0,-0.2 0,-0.3 0.1,-0.5c0.1,-0.4 0.1,-0.8 0.2,-1.2c0.1,-0.6 0.1,-1.1 0.1,-1.7c0,-0.6 0,-1.1 -0.1,-1.7c0,-0.4 -0.1,-0.8 -0.2,-1.2c0,-0.2 0,-0.3 -0.1,-0.5c-0.1,-0.5 -0.2,-0.9 -0.3,-1.4c0,-0.1 0,-0.2 -0.1,-0.2c-0.1,-0.5 -0.3,-0.9 -0.5,-1.4c0,-0.1 0,-0.1 -0.1,-0.2c-0.2,-0.4 -0.4,-0.9 -0.6,-1.3c0,-0.1 -0.1,-0.2 -0.1,-0.2c-0.2,-0.4 -0.4,-0.8 -0.7,-1.2c-0.1,-0.1 -0.1,-0.2 -0.2,-0.3c-0.3,-0.4 -0.5,-0.8 -0.8,-1.1c-0.1,-0.1 -0.1,-0.1 -0.2,-0.2c-0.4,-0.4 -0.7,-0.9 -1.2,-1.3l-98.9,-98.8c-6.7,-6.7 -17.6,-6.7 -24.3,0c-6.7,6.7 -6.7,17.6 0,24.3l69.6,69.6l-276.7,0c-9.5,0 -17.2,7.7 -17.2,17.1c0,9.5 7.7,17.2 17.2,17.2l276.8,0l-69.1,69.1c-6.7,6.7 -6.7,17.6 0,24.3c3.3,3.3 7.7,5 12.1,5s8.8,-1.7 12.1,-5l98.3,-98.3c0.5,-0.6 0.9,-1 1.3,-1.4z"/>
  <path fill="#ffffff" id="svg_5" d="m110.7,34.3l128,0c9.5,0 17.2,-7.7 17.2,-17.1c0,-9.5 -7.7,-17.2 -17.2,-17.2l-128,0c-51.3,0 -93.1,41.8 -93.1,93.1l0,303.7c0,51.3 41.8,93.1 93.1,93.1l125.9,0c9.5,0 17.2,-7.7 17.2,-17.1c0,-9.5 -7.7,-17.2 -17.2,-17.2l-125.9,0c-32.4,0 -58.8,-26.4 -58.8,-58.8l0,-303.7c0.1,-32.5 26.4,-58.8 58.8,-58.8z"/>
 </g>
</svg>